<svg width="20" height="20" viewBox="0 0 20 20" fill="none" xmlns="http://www.w3.org/2000/svg">
<g clip-path="url(#clip0_3030_1795)">
<path d="M-5.00195 0H24.998V6.66667H-5.00195V0Z" fill="#FF6820"/>
<path d="M-5.00195 13.3334H24.998V20.0001H-5.00195V13.3334Z" fill="#046A38"/>
<path d="M9.9974 13.0835C11.7003 13.0835 13.0807 11.703 13.0807 10.0001C13.0807 8.29726 11.7003 6.91681 9.9974 6.91681C8.29452 6.91681 6.91406 8.29726 6.91406 10.0001C6.91406 11.703 8.29452 13.0835 9.9974 13.0835Z" fill="#07038D"/>
<path d="M9.9987 12.6667C11.4715 12.6667 12.6654 11.4728 12.6654 10C12.6654 8.52728 11.4715 7.33337 9.9987 7.33337C8.52594 7.33337 7.33203 8.52728 7.33203 10C7.33203 11.4728 8.52594 12.6667 9.9987 12.6667Z" fill="white"/>
<path d="M9.99818 10.5332C10.2927 10.5332 10.5315 10.2944 10.5315 9.99989C10.5315 9.70533 10.2927 9.46655 9.99818 9.46655C9.70363 9.46655 9.46484 9.70533 9.46484 9.99989C9.46484 10.2944 9.70363 10.5332 9.99818 10.5332Z" fill="#07038D"/>
<path d="M9.99648 7.33331L10.0965 8.93801L9.99648 9.73253L9.89648 8.93801L9.99648 7.33331Z" fill="#07038D"/>
<path d="M10.3294 7.47178C10.3932 7.4802 10.4518 7.43523 10.4602 7.37134C10.4687 7.30746 10.4237 7.24886 10.3598 7.24045C10.2959 7.23204 10.2373 7.27701 10.2289 7.34089C10.2205 7.40477 10.2655 7.46337 10.3294 7.47178Z" fill="#07038D"/>
<path d="M9.99766 12.6666L9.89766 11.0619L9.99766 10.2674L10.0977 11.0619L9.99766 12.6666Z" fill="#07038D"/>
<path d="M9.66479 12.5282C9.60091 12.5197 9.5423 12.5647 9.53389 12.6286C9.52548 12.6925 9.57045 12.7511 9.63433 12.7595C9.69821 12.7679 9.75682 12.7229 9.76523 12.6591C9.77364 12.5952 9.72867 12.5366 9.66479 12.5282Z" fill="#07038D"/>
<path d="M10.6864 7.42414L10.3677 9.00004L10.0655 9.7416L10.1745 8.94827L10.6864 7.42414Z" fill="#07038D"/>
<path d="M10.9736 7.64401C11.0331 7.66867 11.1013 7.6404 11.126 7.58087C11.1507 7.52134 11.1224 7.45309 11.0629 7.42844C11.0033 7.40378 10.9351 7.43205 10.9104 7.49158C10.8858 7.5511 10.914 7.61935 10.9736 7.64401Z" fill="#07038D"/>
<path d="M9.3077 12.5757L9.62644 10.9998L9.92867 10.2583L9.81962 11.0516L9.3077 12.5757Z" fill="#07038D"/>
<path d="M9.02057 12.3559C8.96104 12.3312 8.89279 12.3595 8.86814 12.419C8.84348 12.4785 8.87175 12.5468 8.93128 12.5714C8.99081 12.5961 9.05905 12.5678 9.08371 12.5083C9.10837 12.4488 9.0801 12.3805 9.02057 12.3559Z" fill="#07038D"/>
<path d="M11.3307 7.69056L10.615 9.13027L10.1311 9.76835L10.4418 9.03027L11.3307 7.69056Z" fill="#07038D"/>
<path d="M11.5482 7.9769C11.5993 8.01613 11.6725 8.00648 11.7117 7.95537C11.751 7.90425 11.7413 7.83101 11.6902 7.79179C11.6391 7.75256 11.5659 7.7622 11.5266 7.81332C11.4874 7.86444 11.4971 7.93768 11.5482 7.9769Z" fill="#07038D"/>
<path d="M8.66144 12.3094L9.37719 10.8697L9.86105 10.2316L9.5504 10.9697L8.66144 12.3094Z" fill="#07038D"/>
<path d="M8.44402 12.023C8.3929 11.9838 8.31966 11.9935 8.28044 12.0446C8.24121 12.0957 8.25086 12.1689 8.30197 12.2082C8.35309 12.2474 8.42633 12.2377 8.46555 12.1866C8.50478 12.1355 8.49514 12.0623 8.44402 12.023Z" fill="#07038D"/>
<path d="M11.8832 8.11435L10.8192 9.31975L10.1867 9.81085L10.6778 9.17833L11.8832 8.11435Z" fill="#07038D"/>
<path d="M12.0207 8.44761C12.0599 8.49873 12.1331 8.50837 12.1843 8.46915C12.2354 8.42993 12.245 8.35669 12.2058 8.30557C12.1666 8.25445 12.0933 8.24481 12.0422 8.28403C11.9911 8.32326 11.9814 8.3965 12.0207 8.44761Z" fill="#07038D"/>
<path d="M8.11093 11.8856L9.17491 10.6802L9.80743 10.1891L9.31633 10.8216L8.11093 11.8856Z" fill="#07038D"/>
<path d="M7.97347 11.5523C7.93424 11.5012 7.86101 11.4916 7.80989 11.5308C7.75877 11.57 7.74913 11.6433 7.78835 11.6944C7.82758 11.7455 7.90081 11.7551 7.95193 11.7159C8.00305 11.6767 8.01269 11.6034 7.97347 11.5523Z" fill="#07038D"/>
<path d="M12.3078 8.66662L10.9681 9.55557L10.23 9.86623L10.8681 9.38237L12.3078 8.66662Z" fill="#07038D"/>
<path d="M12.3545 9.02417C12.3791 9.08369 12.4474 9.11196 12.5069 9.08731C12.5664 9.06265 12.5947 8.9944 12.57 8.93487C12.5454 8.87534 12.4771 8.84708 12.4176 8.87173C12.3581 8.89639 12.3298 8.96464 12.3545 9.02417Z" fill="#07038D"/>
<path d="M7.68828 11.3333L9.02799 10.4444L9.76606 10.1337L9.12799 10.6176L7.68828 11.3333Z" fill="#07038D"/>
<path d="M7.64163 10.9758C7.61697 10.9163 7.54872 10.888 7.4892 10.9127C7.42967 10.9374 7.4014 11.0056 7.42606 11.0651C7.45071 11.1247 7.51896 11.1529 7.57849 11.1283C7.63802 11.1036 7.66629 11.0354 7.64163 10.9758Z" fill="#07038D"/>
<path d="M12.5747 9.30961L11.0506 9.82152L10.2572 9.93057L10.9988 9.62834L12.5747 9.30961Z" fill="#07038D"/>
<path d="M12.5261 9.66694C12.5345 9.73082 12.5931 9.77579 12.657 9.76738C12.7209 9.75897 12.7658 9.70036 12.7574 9.63648C12.749 9.5726 12.6904 9.52763 12.6265 9.53604C12.5626 9.54445 12.5177 9.60306 12.5261 9.66694Z" fill="#07038D"/>
<path d="M7.42138 10.69L8.94552 10.1781L9.73885 10.0691L8.99728 10.3713L7.42138 10.69Z" fill="#07038D"/>
<path d="M7.47002 10.3327C7.46161 10.2688 7.403 10.2238 7.33912 10.2323C7.27524 10.2407 7.23027 10.2993 7.23868 10.3632C7.24709 10.427 7.30569 10.472 7.36957 10.4636C7.43346 10.4552 7.47843 10.3966 7.47002 10.3327Z" fill="#07038D"/>
<path d="M12.666 9.99996L11.0613 10.1L10.2668 9.99996L11.0613 9.89996L12.666 9.99996Z" fill="#07038D"/>
<path d="M12.5269 10.3328C12.5185 10.3967 12.5634 10.4553 12.6273 10.4637C12.6912 10.4721 12.7498 10.4272 12.7582 10.3633C12.7666 10.2994 12.7217 10.2408 12.6578 10.2324C12.5939 10.224 12.5353 10.269 12.5269 10.3328Z" fill="#07038D"/>
<path d="M7.33203 9.99998L8.93673 9.89997L9.73125 9.99998L8.93673 10.1L7.33203 9.99998Z" fill="#07038D"/>
<path d="M7.47117 9.66711C7.47959 9.60322 7.43462 9.54462 7.37073 9.53621C7.30685 9.5278 7.24825 9.57277 7.23984 9.63665C7.23143 9.70053 7.2764 9.75914 7.34028 9.76755C7.40416 9.77596 7.46276 9.73099 7.47117 9.66711Z" fill="#07038D"/>
<path d="M12.5757 10.6902L10.9998 10.3714L10.2582 10.0692L11.0515 10.1782L12.5757 10.6902Z" fill="#07038D"/>
<path d="M12.355 10.9758C12.3304 11.0353 12.3586 11.1035 12.4182 11.1282C12.4777 11.1529 12.5459 11.1246 12.5706 11.0651C12.5952 11.0055 12.567 10.9373 12.5074 10.9126C12.4479 10.888 12.3797 10.9162 12.355 10.9758Z" fill="#07038D"/>
<path d="M7.42041 9.30978L8.99631 9.62851L9.73788 9.93074L8.94455 9.8217L7.42041 9.30978Z" fill="#07038D"/>
<path d="M7.64108 9.02417C7.66574 8.96464 7.63747 8.8964 7.57794 8.87174C7.51841 8.84708 7.45016 8.87535 7.42551 8.93488C7.40085 8.99441 7.42912 9.06265 7.48865 9.08731C7.54817 9.11197 7.61642 9.0837 7.64108 9.02417Z" fill="#07038D"/>
<path d="M12.3074 11.3332L10.8677 10.6175L10.2296 10.1336L10.9677 10.4443L12.3074 11.3332Z" fill="#07038D"/>
<path d="M12.0212 11.5523C11.982 11.6034 11.9916 11.6766 12.0427 11.7158C12.0939 11.7551 12.1671 11.7454 12.2063 11.6943C12.2455 11.6432 12.2359 11.5699 12.1848 11.5307C12.1337 11.4915 12.0604 11.5011 12.0212 11.5523Z" fill="#07038D"/>
<path d="M7.68867 8.66651L9.12838 9.38226L9.76645 9.86612L9.02838 9.55546L7.68867 8.66651Z" fill="#07038D"/>
<path d="M7.97489 8.4475C8.01411 8.39638 8.00447 8.32314 7.95335 8.28392C7.90223 8.24469 7.829 8.25433 7.78977 8.30545C7.75055 8.35657 7.76019 8.42981 7.81131 8.46903C7.86243 8.50826 7.93566 8.49862 7.97489 8.4475Z" fill="#07038D"/>
<path d="M11.8844 11.8857L10.679 10.8217L10.1879 10.1891L10.8204 10.6802L11.8844 11.8857Z" fill="#07038D"/>
<path d="M11.5506 12.0231C11.4994 12.0623 11.4898 12.1355 11.529 12.1866C11.5682 12.2378 11.6415 12.2474 11.6926 12.2082C11.7437 12.1689 11.7534 12.0957 11.7141 12.0446C11.6749 11.9935 11.6017 11.9838 11.5506 12.0231Z" fill="#07038D"/>
<path d="M8.11173 8.11435L9.31713 9.17833L9.80823 9.81085L9.17571 9.31975L8.11173 8.11435Z" fill="#07038D"/>
<path d="M8.44554 7.97695C8.49666 7.93772 8.5063 7.86449 8.46708 7.81337C8.42785 7.76225 8.35461 7.75261 8.3035 7.79183C8.25238 7.83106 8.24274 7.90429 8.28196 7.95541C8.32118 8.00653 8.39442 8.01617 8.44554 7.97695Z" fill="#07038D"/>
<path d="M11.3314 12.3093L10.4424 10.9696L10.1318 10.2315L10.6156 10.8696L11.3314 12.3093Z" fill="#07038D"/>
<path d="M10.9728 12.3557C10.9133 12.3804 10.885 12.4487 10.9097 12.5082C10.9344 12.5677 11.0026 12.596 11.0621 12.5713C11.1217 12.5467 11.1499 12.4784 11.1253 12.4189C11.1006 12.3594 11.0324 12.3311 10.9728 12.3557Z" fill="#07038D"/>
<path d="M8.66277 7.69042L9.55173 9.03013L9.86238 9.7682L9.37852 9.13013L8.66277 7.69042Z" fill="#07038D"/>
<path d="M9.0213 7.64395C9.08083 7.61929 9.10909 7.55104 9.08444 7.49152C9.05978 7.43199 8.99153 7.40372 8.932 7.42838C8.87248 7.45303 8.84421 7.52128 8.86887 7.58081C8.89352 7.64034 8.96177 7.66861 9.0213 7.64395Z" fill="#07038D"/>
<path d="M10.6866 12.5757L10.1747 11.0516L10.0656 10.2582L10.3679 10.9998L10.6866 12.5757Z" fill="#07038D"/>
<path d="M10.3304 12.528C10.2666 12.5364 10.2216 12.595 10.23 12.6589C10.2384 12.7228 10.297 12.7678 10.3609 12.7594C10.4248 12.751 10.4697 12.6924 10.4613 12.6285C10.4529 12.5646 10.3943 12.5196 10.3304 12.528Z" fill="#07038D"/>
<path d="M9.30753 7.42407L9.81945 8.94821L9.92849 9.74153L9.62626 8.99997L9.30753 7.42407Z" fill="#07038D"/>
<path d="M9.6637 7.47172C9.72759 7.46331 9.77255 7.40471 9.76414 7.34083C9.75573 7.27695 9.69713 7.23198 9.63325 7.24039C9.56936 7.2488 9.5244 7.3074 9.53281 7.37128C9.54122 7.43517 9.59982 7.48013 9.6637 7.47172Z" fill="#07038D"/>
</g>
<defs>
<clipPath id="clip0_3030_1795">
<rect x="-0.00195312" width="20" height="20" rx="10" fill="white"/>
</clipPath>
</defs>
</svg>
