<svg width="20" height="20" viewBox="0 0 20 20" fill="none" xmlns="http://www.w3.org/2000/svg">
<path d="M16.7838 15.7116H16.248V8.12227C16.248 4.97272 13.9199 2.37004 10.8909 1.937V1.0687C10.8909 0.575396 10.4914 0.175842 9.99805 0.175842C9.50474 0.175842 9.10519 0.575396 9.10519 1.0687V1.937C6.07617 2.37004 3.74805 4.97272 3.74805 8.12227V15.7116H3.21233C2.81724 15.7116 2.49805 16.0308 2.49805 16.4258V17.1401C2.49805 17.2383 2.5784 17.3187 2.67662 17.3187H7.49805C7.49805 18.6982 8.61858 19.8187 9.99805 19.8187C11.3775 19.8187 12.498 18.6982 12.498 17.3187H17.3195C17.4177 17.3187 17.498 17.2383 17.498 17.1401V16.4258C17.498 16.0308 17.1789 15.7116 16.7838 15.7116ZM9.99805 18.3901C9.40653 18.3901 8.92662 17.9102 8.92662 17.3187H11.0695C11.0695 17.9102 10.5896 18.3901 9.99805 18.3901ZM5.35519 15.7116V8.12227C5.35519 6.8812 5.83733 5.71602 6.71457 4.83879C7.5918 3.96156 8.75698 3.47941 9.99805 3.47941C11.2391 3.47941 12.4043 3.96156 13.2815 4.83879C14.1588 5.71602 14.6409 6.8812 14.6409 8.12227V15.7116H5.35519Z" fill="#262626"/>
</svg>
