<svg width="18" height="18" viewBox="0 0 18 18" fill="none" xmlns="http://www.w3.org/2000/svg">
<g clip-path="url(#clip0_3030_36)">
<path d="M16.9881 15.883L11.7709 10.6658C12.5805 9.61919 13.0184 8.3395 13.0184 6.99352C13.0184 5.38236 12.3896 3.87165 11.2526 2.73258C10.1155 1.59352 8.60078 0.966736 6.99163 0.966736C5.38248 0.966736 3.86775 1.59553 2.73069 2.73258C1.59163 3.86964 0.964844 5.38236 0.964844 6.99352C0.964844 8.60267 1.59364 10.1174 2.73069 11.2545C3.86775 12.3935 5.38047 13.0203 6.99163 13.0203C8.33761 13.0203 9.61529 12.5824 10.6619 11.7748L15.8791 16.99C15.8944 17.0053 15.9126 17.0174 15.9326 17.0257C15.9526 17.034 15.974 17.0382 15.9956 17.0382C16.0173 17.0382 16.0387 17.034 16.0587 17.0257C16.0787 17.0174 16.0969 17.0053 16.1122 16.99L16.9881 16.1161C17.0034 16.1008 17.0155 16.0826 17.0238 16.0626C17.0321 16.0426 17.0363 16.0212 17.0363 15.9995C17.0363 15.9779 17.0321 15.9565 17.0238 15.9365C17.0155 15.9165 17.0034 15.8983 16.9881 15.883ZM10.1738 10.1757C9.32199 11.0254 8.19297 11.4935 6.99163 11.4935C5.79029 11.4935 4.66127 11.0254 3.80949 10.1757C2.95971 9.32388 2.49163 8.19486 2.49163 6.99352C2.49163 5.79218 2.95971 4.66116 3.80949 3.81138C4.66127 2.9616 5.79029 2.49352 6.99163 2.49352C8.19297 2.49352 9.324 2.95959 10.1738 3.81138C11.0235 4.66316 11.4916 5.79218 11.4916 6.99352C11.4916 8.19486 11.0235 9.32589 10.1738 10.1757Z" fill="black"/>
</g>
<defs>
<clipPath id="clip0_3030_36">
<rect width="18" height="18" fill="white"/>
</clipPath>
</defs>
</svg>
