<svg width="20" height="20" viewBox="0 0 20 20" fill="none" xmlns="http://www.w3.org/2000/svg">
<path d="M19.2143 12.5412L17.7522 11.2912C17.8214 10.8671 17.8571 10.434 17.8571 10.001C17.8571 9.56796 17.8214 9.13492 17.7522 8.71082L19.2143 7.46082C19.3246 7.36641 19.4035 7.24067 19.4406 7.10032C19.4777 6.95997 19.4711 6.81166 19.4219 6.6751L19.4018 6.61706C18.9993 5.49212 18.3966 4.44929 17.6228 3.53894L17.5826 3.49207C17.4887 3.38169 17.3636 3.30235 17.2237 3.26449C17.0839 3.22664 16.9358 3.23205 16.7991 3.28001L14.9844 3.9251C14.3147 3.37599 13.567 2.94296 12.7589 2.63939L12.4085 0.742065C12.382 0.599302 12.3128 0.467964 12.2099 0.365498C12.1071 0.263032 11.9755 0.19429 11.8326 0.168405L11.7723 0.157244C10.6094 -0.0525774 9.38616 -0.0525774 8.22322 0.157244L8.16295 0.168405C8.02009 0.19429 7.88848 0.263032 7.78561 0.365498C7.68275 0.467964 7.6135 0.599302 7.58706 0.742065L7.23438 2.64832C6.43279 2.95195 5.68631 3.38476 5.02456 3.92957L3.19643 3.28001C3.05975 3.23167 2.91159 3.22606 2.77165 3.26394C2.6317 3.30182 2.50659 3.38138 2.41295 3.49207L2.37277 3.53894C1.59988 4.44993 0.997272 5.49259 0.593755 6.61706L0.573665 6.6751C0.473219 6.95412 0.555808 7.26662 0.781255 7.46082L2.26117 8.72421C2.19197 9.14385 2.15849 9.57242 2.15849 9.99876C2.15849 10.4273 2.19197 10.8559 2.26117 11.2733L0.781255 12.5367C0.670977 12.6311 0.59205 12.7569 0.554969 12.8972C0.517887 13.0376 0.524408 13.1859 0.573665 13.3224L0.593755 13.3805C0.997772 14.5055 1.59599 15.5434 2.37277 16.4586L2.41295 16.5055C2.50682 16.6158 2.63193 16.6952 2.7718 16.733C2.91166 16.7709 3.05971 16.7655 3.19643 16.7175L5.02456 16.068C5.68974 16.6148 6.43304 17.0479 7.23438 17.3492L7.58706 19.2555C7.6135 19.3982 7.68275 19.5296 7.78561 19.632C7.88848 19.7345 8.02009 19.8032 8.16295 19.8291L8.22322 19.8403C9.39685 20.0512 10.5987 20.0512 11.7723 19.8403L11.8326 19.8291C11.9755 19.8032 12.1071 19.7345 12.2099 19.632C12.3128 19.5296 12.382 19.3982 12.4085 19.2555L12.7589 17.3581C13.5666 17.0554 14.3186 16.6209 14.9844 16.0724L16.7991 16.7175C16.9358 16.7659 17.084 16.7715 17.2239 16.7336C17.3638 16.6957 17.489 16.6161 17.5826 16.5055L17.6228 16.4586C18.3996 15.5412 18.9978 14.5055 19.4018 13.3805L19.4219 13.3224C19.5223 13.0479 19.4397 12.7354 19.2143 12.5412ZM16.1674 8.97421C16.2232 9.31126 16.2522 9.65724 16.2522 10.0032C16.2522 10.3492 16.2232 10.6952 16.1674 11.0322L16.0201 11.9273L17.6875 13.3537C17.4347 13.936 17.1157 14.4873 16.7366 14.9965L14.6652 14.2622L13.9643 14.838C13.4308 15.2755 12.8371 15.6193 12.1942 15.8604L11.3438 16.1796L10.9442 18.3447C10.3138 18.4162 9.6773 18.4162 9.04688 18.3447L8.64733 16.1751L7.80358 15.8514C7.16742 15.6104 6.5759 15.2666 6.04688 14.8314L5.34599 14.2532L3.26117 14.9943C2.8817 14.4831 2.56474 13.9318 2.31027 13.3514L3.99554 11.9117L3.85045 11.0189C3.79688 10.6863 3.76786 10.3425 3.76786 10.0032C3.76786 9.66171 3.79465 9.32019 3.85045 8.9876L3.99554 8.09474L2.31027 6.65501C2.5625 6.07242 2.8817 5.52332 3.26117 5.01215L5.34599 5.75323L6.04688 5.1751C6.5759 4.73983 7.16742 4.39608 7.80358 4.15501L8.64956 3.83582L9.04911 1.66617C9.67634 1.59474 10.317 1.59474 10.9464 1.66617L11.346 3.83135L12.1964 4.15055C12.8371 4.39162 13.433 4.73537 13.9665 5.17287L14.6674 5.74876L16.7388 5.01439C17.1183 5.52555 17.4353 6.07689 17.6897 6.65724L16.0223 8.08358L16.1674 8.97421ZM10 5.85144C7.83036 5.85144 6.07143 7.61037 6.07143 9.78001C6.07143 11.9497 7.83036 13.7086 10 13.7086C12.1696 13.7086 13.9286 11.9497 13.9286 9.78001C13.9286 7.61037 12.1696 5.85144 10 5.85144ZM11.7679 11.5479C11.536 11.7804 11.2604 11.9648 10.957 12.0905C10.6536 12.2161 10.3284 12.2805 10 12.28C9.33259 12.28 8.70536 12.0189 8.23215 11.5479C7.99961 11.316 7.81521 11.0404 7.68956 10.737C7.56392 10.4336 7.49949 10.1084 7.5 9.78001C7.5 9.1126 7.76117 8.48537 8.23215 8.01215C8.70536 7.53894 9.33259 7.28001 10 7.28001C10.6674 7.28001 11.2946 7.53894 11.7679 8.01215C12.0004 8.24403 12.1848 8.51959 12.3104 8.82298C12.4361 9.12638 12.5005 9.45163 12.5 9.78001C12.5 10.4474 12.2388 11.0747 11.7679 11.5479Z" fill="#262626"/>
</svg>
