<svg width="149" height="75" viewBox="0 0 149 75" fill="none" xmlns="http://www.w3.org/2000/svg">
<g filter="url(#filter0_f_2814_8682)">
<path d="M29.6356 35.8644L31.948 33.552L31.9504 33.5496H36.3006L34.5697 35.2806L34.1228 35.7275L32.3502 37.5L32.5698 37.7201L42.5 47.6498L52.6498 37.5L50.8766 35.7275L50.7518 35.602L48.6994 33.5496H53.0496L53.052 33.552L54.8644 35.3644L57 37.5L42.5 52L28 37.5L29.6356 35.8644ZM42.5 23L50.8784 31.3784H46.5282L42.5 27.3502L38.4718 31.3784H34.1216L42.5 23Z" fill="#26E6CC"/>
<path d="M32.3509 37.5L34.1234 35.7275L34.5703 35.2805L32.84 33.5496H31.951L31.9486 33.552L29.6363 35.8644L31.8557 38.073L32.3509 37.5Z" fill="url(#paint0_linear_2814_8682)"/>
<path d="M50.8775 35.7275L52.6506 37.5L52.4751 37.6755L52.4757 37.6761L54.8652 35.3644L53.0529 33.552L53.0505 33.5496H52.8744L50.7526 35.602L50.8775 35.7275Z" fill="url(#paint1_linear_2814_8682)"/>
<path d="M31.9458 33.5496L31.9482 33.552L34.123 35.7275L42.5002 44.1041L53.0547 33.5496H31.9458Z" fill="#26E6CC"/>
<path d="M71.925 45.5V29.594H75.753L79.922 41.749L84.135 29.594H87.941V45.5H85.224V33.026L81.033 45.5H78.8L74.642 33.103V45.5H71.925ZM94.6371 45.72C93.9111 45.72 93.2584 45.588 92.6791 45.324C92.1071 45.0527 91.6561 44.6677 91.3261 44.169C91.0034 43.663 90.8421 43.0507 90.8421 42.332C90.8421 41.078 91.2931 40.132 92.1951 39.494C93.1044 38.856 94.5491 38.5223 96.5291 38.493L98.2341 38.449V37.679C98.2341 37.0777 98.0544 36.6083 97.6951 36.271C97.3431 35.9263 96.7931 35.7577 96.0451 35.765C95.4877 35.7723 94.9817 35.9043 94.5271 36.161C94.0724 36.4103 93.7717 36.832 93.6251 37.426H91.3481C91.3921 36.6487 91.6157 35.9997 92.0191 35.479C92.4297 34.951 92.9907 34.5587 93.7021 34.302C94.4134 34.038 95.2347 33.906 96.1661 33.906C97.2514 33.906 98.1351 34.049 98.8171 34.335C99.4991 34.621 100.001 35.0353 100.324 35.578C100.647 36.1133 100.808 36.7623 100.808 37.525V45.5H98.5531L98.3331 43.454C97.9297 44.312 97.4127 44.906 96.7821 45.236C96.1587 45.5587 95.4437 45.72 94.6371 45.72ZM95.5061 43.905C95.8361 43.905 96.1624 43.8463 96.4851 43.729C96.8077 43.6043 97.0974 43.4393 97.3541 43.234C97.6181 43.0213 97.8271 42.7867 97.9811 42.53C98.1424 42.2733 98.2267 42.0057 98.2341 41.727V39.934L96.8371 39.956C96.1477 39.9633 95.5427 40.0367 95.0221 40.176C94.5087 40.3153 94.1091 40.539 93.8231 40.847C93.5371 41.1477 93.3941 41.551 93.3941 42.057C93.3941 42.6363 93.5957 43.091 93.9991 43.421C94.4024 43.7437 94.9047 43.905 95.5061 43.905ZM103.659 45.5V34.126H106.277V35.754C106.453 35.4607 106.691 35.1783 106.992 34.907C107.3 34.6357 107.677 34.4157 108.125 34.247C108.572 34.0783 109.096 33.994 109.698 33.994C110.402 33.994 111.054 34.1333 111.656 34.412C112.264 34.6907 112.752 35.127 113.119 35.721C113.493 36.315 113.68 37.0813 113.68 38.02V45.5H110.996V38.339C110.996 37.591 110.79 37.0373 110.38 36.678C109.969 36.3113 109.452 36.128 108.829 36.128C108.403 36.128 108 36.2013 107.619 36.348C107.237 36.4873 106.926 36.7037 106.684 36.997C106.449 37.283 106.332 37.6423 106.332 38.075V45.5H103.659ZM120.663 45.588C119.761 45.588 119.061 45.4707 118.562 45.236C118.071 44.994 117.73 44.653 117.539 44.213C117.348 43.773 117.253 43.2487 117.253 42.64V36.018H115.405V34.126H117.33L118.001 30.749H119.926V34.115H122.467V36.018H119.926L119.937 42.541C119.937 42.8783 119.974 43.1277 120.047 43.289C120.128 43.443 120.252 43.5457 120.421 43.597C120.597 43.641 120.828 43.663 121.114 43.663H122.522V45.357C122.368 45.4157 122.141 45.467 121.84 45.511C121.547 45.5623 121.154 45.588 120.663 45.588ZM125.037 45.5V34.126H127.6V45.5H125.037ZM124.993 32.135V29.605H127.644V32.135H124.993ZM135.02 45.72C134.228 45.72 133.477 45.5953 132.765 45.346C132.061 45.0893 131.467 44.6897 130.983 44.147C130.507 43.6043 130.206 42.904 130.081 42.046H132.435C132.538 42.464 132.718 42.805 132.974 43.069C133.238 43.333 133.546 43.5273 133.898 43.652C134.258 43.7693 134.628 43.828 135.009 43.828C135.691 43.828 136.241 43.7107 136.659 43.476C137.077 43.2413 137.286 42.8783 137.286 42.387C137.286 42.0277 137.169 41.7417 136.934 41.529C136.707 41.3163 136.333 41.155 135.812 41.045L133.656 40.55C132.688 40.3373 131.915 39.9853 131.335 39.494C130.756 39.0027 130.463 38.3097 130.455 37.415C130.448 36.7403 130.617 36.139 130.961 35.611C131.306 35.083 131.819 34.6687 132.501 34.368C133.183 34.06 134.023 33.906 135.02 33.906C136.348 33.906 137.411 34.203 138.21 34.797C139.017 35.3837 139.431 36.2233 139.453 37.316H137.176C137.096 36.8247 136.865 36.4433 136.483 36.172C136.102 35.8933 135.607 35.754 134.998 35.754C134.368 35.754 133.851 35.875 133.447 36.117C133.044 36.359 132.842 36.7293 132.842 37.228C132.842 37.5727 132.993 37.844 133.293 38.042C133.601 38.24 134.067 38.4087 134.69 38.548L136.736 39.043C137.323 39.1897 137.803 39.3877 138.177 39.637C138.551 39.8863 138.841 40.1613 139.046 40.462C139.259 40.7553 139.406 41.0597 139.486 41.375C139.574 41.683 139.618 41.969 139.618 42.233C139.618 42.9663 139.428 43.5933 139.046 44.114C138.672 44.6273 138.141 45.0233 137.451 45.302C136.769 45.5807 135.959 45.72 135.02 45.72Z" fill="black"/>
</g>
<defs>
<filter id="filter0_f_2814_8682" x="-8" y="-8" width="158" height="91" filterUnits="userSpaceOnUse" color-interpolation-filters="sRGB">
<feFlood flood-opacity="0" result="BackgroundImageFix"/>
<feBlend mode="normal" in="SourceGraphic" in2="BackgroundImageFix" result="shape"/>
<feGaussianBlur stdDeviation="4" result="effect1_foregroundBlur_2814_8682"/>
</filter>
<linearGradient id="paint0_linear_2814_8682" x1="33.6259" y1="34.0888" x2="30.5677" y2="37.1469" gradientUnits="userSpaceOnUse">
<stop stop-color="#023B95"/>
<stop offset="0.9637" stop-color="#096CD9" stop-opacity="0"/>
</linearGradient>
<linearGradient id="paint1_linear_2814_8682" x1="51.2683" y1="34.1279" x2="53.7411" y2="36.938" gradientUnits="userSpaceOnUse">
<stop stop-color="#023B95"/>
<stop offset="1" stop-color="#096DD9" stop-opacity="0"/>
</linearGradient>
</defs>
</svg>
